<svg height="495pt" viewBox="-1 0 495 495.38319" width="495pt" xmlns="http://www.w3.org/2000/svg"><path d="m220.882812 221.402344v-52.964844c0-4.878906-3.953124-8.828125-8.828124-8.828125s-8.828126 3.949219-8.828126 8.828125v52.964844c0 4.875 3.953126 8.828125 8.828126 8.828125s8.828124-3.953125 8.828124-8.828125zm0 0"/><path d="m274.304688 200.957031-8.828126 26.484375c-1.539062 4.628906.964844 9.632813 5.597657 11.171875 4.632812 1.542969 9.636719-.964843 11.175781-5.59375l8.828125-26.484375c.996094-2.996094.320313-6.296875-1.777344-8.65625-2.097656-2.363281-5.292969-3.425781-8.386719-2.789062-3.09375.632812-5.613281 2.871094-6.609374 5.867187zm0 0"/><path d="m150.261719 239.054688c2.835937 0 5.496093-1.363282 7.15625-3.664063 1.65625-2.304687 2.105469-5.261719 1.210937-7.949219l-8.828125-26.484375c-.996093-2.996093-3.515625-5.234375-6.609375-5.867187-3.089844-.636719-6.289062.425781-8.386718 2.789062-2.09375 2.359375-2.773438 5.660156-1.777344 8.65625l8.828125 26.484375c1.207031 3.613281 4.59375 6.050781 8.40625 6.035157zm0 0"/><path d="m278.523438 88.785156c-10.207032-.84375-20.101563-3.929687-28.980469-9.039062l5.90625 22.949218c3.164062 3.542969 7.445312 5.898438 12.128906 6.675782 7.148437.679687 14.308594-1.101563 20.304687-5.050782l-7.8125-10.503906c-1.03125-1.472656-1.570312-3.234375-1.546874-5.03125zm0 0"/><path d="m492.769531 403.003906c-5.648437-31.375-26.25-138.921875-54.445312-205.226562-36.195313-85.148438-102.871094-184.082032-121.011719-193.214844-19.417969-9.808594-135.828125-3.039062-171.960938 13.046875-34.066406 15.15625-30.191406 54.324219-23.832031 89.835937.980469 4.921876 1.710938 9.890626 2.1875 14.882813 3.652344 1.621094 7.652344 2.300781 11.636719 1.96875 4.871094-.929687 9.191406-3.71875 12.046875-7.777344 2.007813-2.078125 3.128906-4.859375 3.125-7.75l-3.476563-20.003906c-.632812-3.144531.496094-6.386719 2.941407-8.464844 2.449219-2.078125 5.828125-2.664062 8.832031-1.527343 3.003906 1.132812 5.152344 3.808593 5.617188 6.984374l3.273437 18.917969c1.667969 6.082031 5.652344 11.273438 11.097656 14.457031 5.296875 1.882813 11.128907 1.566407 16.1875-.882812-.085937-.253906-.289062-.441406-.351562-.695312l-8.828125-37.03125c-1.128906-4.746094 1.796875-9.507813 6.542968-10.640626 4.742188-1.128906 9.503907 1.800782 10.636719 6.542969l8.359375 35.082031c2.9375 3.761719 7.21875 6.238282 11.945313 6.910157 6.257812-.332031 12.121093-3.171875 16.257812-7.882813-.296875-.519531-.542969-1.070312-.730469-1.640625l-11.390624-44.136719c-.734376-2.882812.027343-5.9375 2.03125-8.132812 2.003906-2.195312 4.976562-3.238281 7.910156-2.769531 2.214844-.328125 4.46875.214843 6.292968 1.507812 19.035157 13.601563 34.324219 18.636719 44.140626 14.558594 6.628906-3.710937 11.261718-10.183594 12.628906-17.65625.90625-4.707031 5.402344-7.832031 10.128906-7.042969 4.726562.792969 7.957031 5.210938 7.28125 9.957032-2.414062 12.863281-10.460938 23.96875-21.929688 30.277343l26.050782 34.992188c5.308594 7.085937 8.296875 15.636719 8.554687 24.488281.433594 13.242188.222657 26.4375 0 39.238281-1.398437 26.671875.082031 53.417969 4.414063 79.773438 7.046875 31.648437 16.007812 62.835937 26.835937 93.398437l2.058594 6.230469c.023437.144531.042969.289063.050781.433594.148438.609375.222656 1.234375.230469 1.863281.042969.523438.042969 1.046875 0 1.570312-.097656.546876-.25 1.085938-.449219 1.605469-.148437.542969-.347656 1.070313-.601562 1.570313-.273438.429687-.585938.832031-.9375 1.203125-.367188.496093-.796875.949219-1.269532 1.351562-.125.09375-.175781.238281-.308593.324219-.625.429688-1.304688.765625-2.023438 1.007812-.113281 0-.183593.132813-.296875.175782h-.074218c-.785157.246094-1.601563.378906-2.425782.398437-.089844 0-.183594.042969-.28125.042969-1.226562-.042969-2.429687-.34375-3.53125-.882812-.257812-.113282-.496094-.230469-.75-.371094-1.113281-.582032-2.085937-1.402344-2.851562-2.402344l-.0625-.058594c-.636719-.882812-63.558594-88.964844-119.597656-99.613281-75.917969-14.40625-152.175782 32.726563-152.945313 33.203125-2.679687 1.675781-6.050781 1.792969-8.84375.308594-2.792969-1.480469-4.582031-4.34375-4.691406-7.5-.113281-3.160156 1.46875-6.140625 4.152343-7.816406 16.640626-9.878907 34.253907-18.011719 52.566407-24.265626l-3.246094-4.414062c-10.054687-15.910156-23.117187-29.707031-38.453125-40.609375-13.042969-7.527344-26.621094-14.082031-40.625-19.605469-5.121094-2.179687-10.234375-4.351562-15.253906-6.601562l-21.117188-9.472656v310.03125h44.136719c.554687.054687 1.101563.164062 1.632813.328124l.132812-.0625c.496094-.121093 40.519531-10.257812 66.464844-20.0625-21.976563-12.28125-42.039063-27.707031-59.550782-45.789062-3.226562-3.65625-2.878906-9.238281.777344-12.464844 3.65625-3.226562 9.234375-2.878906 12.464844.777344.882812.996094 89.296875 98.726562 218.789062 66.074219 114.601563-28.867188 157.007813-41.578125 167.265626-44.792969.957031-.292969 1.851562-.753906 2.648437-1.359375l34.515625-26.085937c2.632812-2.019532 3.910156-5.351563 3.300781-8.613282zm-216.820312 47.667969c-17.066407 4.4375-34.613281 6.765625-52.242188 6.929687-71.292969 0-97.5-44.136718-98.800781-46.425781-2.4375-4.222656-.988281-9.625 3.238281-12.0625 4.222657-2.4375 9.625-.988281 12.0625 3.234375 1.375 2.332032 33.992188 55.535156 131.46875 31.164063 3.089844-.847657 6.394531.042969 8.636719 2.332031 2.242188 2.285156 3.070312 5.605469 2.164062 8.675781-.90625 3.074219-3.40625 5.414063-6.527343 6.117188zm0 0"/></svg>